<svg width="220" height="30" viewBox="0 0 220 30" fill="none" xmlns="http://www.w3.org/2000/svg">
<path d="M22.6628 8C22.6628 9.6 22.2361 10.96 21.3828 12.08C20.5295 13.2 19.2095 13.76 17.4228 13.76C15.6361 13.76 14.3428 13.1733 13.5428 12C12.7428 10.8 12.3428 9.33333 12.3428 7.6H15.5428C15.5428 9.70667 16.1695 10.76 17.4228 10.76C18.0895 10.76 18.5961 10.5067 18.9428 10C19.2895 9.46667 19.4628 8.8 19.4628 8C19.4628 6.72 18.8761 5.70667 17.7028 4.96C16.5295 4.18667 15.1561 3.8 13.5828 3.8C10.8095 3.8 8.58281 4.86667 6.90281 7C5.22281 9.10667 4.38281 11.7733 4.38281 15C4.38281 18.2267 5.22281 20.9067 6.90281 23.04C8.58281 25.1467 10.7961 26.2 13.5428 26.2C16.3161 26.2 18.7961 25.0533 20.9828 22.76L23.4228 24.76C21.0495 27.8533 17.8228 29.4 13.7428 29.4C9.66281 29.4 6.47615 28.08 4.18281 25.44C1.91615 22.7733 0.782813 19.32 0.782813 15.08C0.782813 10.84 1.92948 7.37333 4.22281 4.68C6.51615 1.96 9.63615 0.599998 13.5828 0.599998C16.0095 0.599998 18.1295 1.29333 19.9428 2.68C21.7561 4.04 22.6628 5.81333 22.6628 8ZM45.7922 11.4C45.7922 13.1333 45.3922 14.6 44.5922 15.8C43.7922 16.9733 42.4989 17.56 40.7122 17.56C38.9255 17.56 37.6055 17 36.7522 15.88C35.8989 14.76 35.4722 13.4 35.4722 11.8C35.4722 9.61333 36.2189 7.84 37.7122 6.48C39.2055 5.09333 40.9522 4.4 42.9522 4.4C44.8722 4.4 46.6322 5.12 48.2322 6.56C49.0589 7.30666 49.7255 8.4 50.2322 9.84C50.7389 11.28 50.9922 12.9733 50.9922 14.92C50.9922 19.16 49.8455 22.64 47.5522 25.36C45.2589 28.0533 42.1389 29.4 38.1922 29.4C34.2455 29.4 31.1255 28.0533 28.8322 25.36C26.5389 22.64 25.3922 19.1867 25.3922 15C25.3922 10.8133 26.5389 7.37333 28.8322 4.68C31.1255 1.96 34.2455 0.599998 38.1922 0.599998V3.6C35.4189 3.6 33.1922 4.68 31.5122 6.84C29.8322 8.97333 28.9922 11.6933 28.9922 15C28.9922 18.3067 29.8322 21.04 31.5122 23.2C33.1922 25.3333 35.4189 26.4 38.1922 26.4C40.9655 26.4 43.1922 25.3333 44.8722 23.2C46.5522 21.04 47.3922 18.44 47.3922 15.4C47.3922 12.3333 46.9522 10.24 46.0722 9.12C45.1922 7.97333 44.1655 7.4 42.9922 7.4C41.8189 7.4 40.8055 7.81333 39.9522 8.64C39.0989 9.46667 38.6722 10.52 38.6722 11.8C38.6722 12.6 38.8455 13.2667 39.1922 13.8C39.5389 14.3067 40.0455 14.56 40.7122 14.56C41.9655 14.56 42.5922 13.5067 42.5922 11.4H45.7922ZM74.1906 11.4C74.1906 13.1333 73.7906 14.6 72.9906 15.8C72.1906 16.9733 70.8973 17.56 69.1106 17.56C67.324 17.56 66.004 17 65.1506 15.88C64.2973 14.76 63.8706 13.4 63.8706 11.8C63.8706 9.61333 64.6173 7.84 66.1106 6.48C67.604 5.09333 69.3506 4.4 71.3506 4.4C73.2706 4.4 75.0306 5.12 76.6306 6.56C77.4573 7.30666 78.124 8.4 78.6306 9.84C79.1373 11.28 79.3906 12.9733 79.3906 14.92C79.3906 19.16 78.244 22.64 75.9506 25.36C73.6573 28.0533 70.5373 29.4 66.5906 29.4C62.644 29.4 59.524 28.0533 57.2306 25.36C54.9373 22.64 53.7906 19.1867 53.7906 15C53.7906 10.8133 54.9373 7.37333 57.2306 4.68C59.524 1.96 62.644 0.599998 66.5906 0.599998V3.6C63.8173 3.6 61.5906 4.68 59.9106 6.84C58.2306 8.97333 57.3906 11.6933 57.3906 15C57.3906 18.3067 58.2306 21.04 59.9106 23.2C61.5906 25.3333 63.8173 26.4 66.5906 26.4C69.364 26.4 71.5906 25.3333 73.2706 23.2C74.9506 21.04 75.7906 18.44 75.7906 15.4C75.7906 12.3333 75.3506 10.24 74.4706 9.12C73.5906 7.97333 72.564 7.4 71.3906 7.4C70.2173 7.4 69.204 7.81333 68.3506 8.64C67.4973 9.46667 67.0706 10.52 67.0706 11.8C67.0706 12.6 67.244 13.2667 67.5906 13.8C67.9373 14.3067 68.444 14.56 69.1106 14.56C70.364 14.56 70.9906 13.5067 70.9906 11.4H74.1906ZM96.3491 4V26H107.509V21.4H110.309V29H89.0691V26H92.9491V4.08C89.6691 4.29333 87.3491 4.84 85.9891 5.72C84.6557 6.6 83.9891 7.88 83.9891 9.56C83.9891 10.36 84.1624 11.0267 84.5091 11.56C84.8557 12.0667 85.3624 12.32 86.0291 12.32C87.2824 12.32 87.9091 11.2667 87.9091 9.16H91.1091C91.1091 10.8933 90.7091 12.36 89.9091 13.56C89.1091 14.7333 87.8157 15.32 86.0291 15.32C84.2424 15.32 82.9224 14.76 82.0691 13.64C81.2157 12.52 80.7891 11.16 80.7891 9.56C80.7891 7.05333 81.9091 5 84.1491 3.4C86.3891 1.8 89.9091 0.999998 94.7091 0.999998H99.8291V4H96.3491ZM112.976 11.6V9H119.456V26.4H122.936V29H112.936V26.4H116.056V11.6H112.976ZM117.656 5.44C117.069 5.44 116.589 5.22667 116.216 4.8C115.843 4.37333 115.656 3.86667 115.656 3.28C115.656 2.66667 115.856 2.13333 116.256 1.68C116.683 1.22667 117.189 0.999998 117.776 0.999998C118.363 0.999998 118.843 1.21333 119.216 1.64C119.589 2.06667 119.776 2.58666 119.776 3.2C119.776 3.78667 119.563 4.30667 119.136 4.76C118.736 5.21333 118.243 5.44 117.656 5.44ZM131.233 26.4H134.713V29H124.753V26.4H127.833V11.6H124.753V9H130.473L130.953 11.12C131.86 10.6133 132.593 10.2267 133.153 9.96C133.713 9.66667 134.513 9.37333 135.553 9.08C136.62 8.76 137.646 8.6 138.633 8.6C140.926 8.6 142.5 9.28 143.353 10.64C144.233 12 144.673 13.88 144.673 16.28V26.6H147.953V28.28C146.966 28.8933 145.82 29.2 144.513 29.2C143.233 29.2 142.366 28.9867 141.913 28.56C141.486 28.1067 141.273 27.3867 141.273 26.4V16.28C141.273 14.7333 141.073 13.5733 140.673 12.8C140.273 12 139.353 11.6 137.913 11.6C136.473 11.6 134.246 12.4 131.233 14V26.4ZM155.447 29.4C153.607 29.4 152.167 28.88 151.127 27.84C150.087 26.7733 149.567 25.36 149.567 23.6C149.567 21.8133 150.261 20.32 151.647 19.12C153.034 17.92 155.087 17.32 157.807 17.32H162.167V15.28C162.167 12.8267 160.994 11.6 158.647 11.6C156.674 11.6 154.861 11.84 153.207 12.32V15H150.407V10.24C151.607 9.73333 153.021 9.33333 154.647 9.04C156.301 8.74667 157.674 8.6 158.767 8.6C160.901 8.6 162.567 9.21333 163.767 10.44C164.967 11.64 165.567 13.2533 165.567 15.28V26.6H168.847V28.28C167.861 28.8933 166.727 29.2 165.447 29.2C164.167 29.2 163.301 28.9867 162.847 28.56C162.394 28.1333 162.167 27.4133 162.167 26.4C160.167 28.4 157.927 29.4 155.447 29.4ZM155.807 26.4C158.101 26.4 160.221 25.1067 162.167 22.52V19.96H157.767C156.141 19.96 154.927 20.28 154.127 20.92C153.354 21.56 152.967 22.3733 152.967 23.36C152.967 24.32 153.207 25.0667 153.687 25.6C154.167 26.1333 154.874 26.4 155.807 26.4ZM176.546 26.4H180.026V29H170.066V26.4H173.146V11.6H170.066V9H175.786L176.266 11.12C177.172 10.6133 177.906 10.2267 178.466 9.96C179.026 9.66667 179.826 9.37333 180.866 9.08C181.932 8.76 182.959 8.6 183.946 8.6L186.186 9.2L185.266 12.48L183.466 12C181.226 12 178.919 12.56 176.546 13.68V26.4ZM187.742 11.6V9H194.222V26.4H197.702V29H187.702V26.4H190.822V11.6H187.742ZM192.422 5.44C191.835 5.44 191.355 5.22667 190.982 4.8C190.608 4.37333 190.422 3.86667 190.422 3.28C190.422 2.66667 190.622 2.13333 191.022 1.68C191.448 1.22667 191.955 0.999998 192.542 0.999998C193.128 0.999998 193.608 1.21333 193.982 1.64C194.355 2.06667 194.542 2.58666 194.542 3.2C194.542 3.78667 194.328 4.30667 193.902 4.76C193.502 5.21333 193.008 5.44 192.422 5.44ZM205.799 29.4C203.959 29.4 202.519 28.88 201.479 27.84C200.439 26.7733 199.919 25.36 199.919 23.6C199.919 21.8133 200.612 20.32 201.999 19.12C203.385 17.92 205.439 17.32 208.159 17.32H212.519V15.28C212.519 12.8267 211.345 11.6 208.999 11.6C207.025 11.6 205.212 11.84 203.559 12.32V15H200.759V10.24C201.959 9.73333 203.372 9.33333 204.999 9.04C206.652 8.74667 208.025 8.6 209.119 8.6C211.252 8.6 212.919 9.21333 214.119 10.44C215.319 11.64 215.919 13.2533 215.919 15.28V26.6H219.199V28.28C218.212 28.8933 217.079 29.2 215.799 29.2C214.519 29.2 213.652 28.9867 213.199 28.56C212.745 28.1333 212.519 27.4133 212.519 26.4C210.519 28.4 208.279 29.4 205.799 29.4ZM206.159 26.4C208.452 26.4 210.572 25.1067 212.519 22.52V19.96H208.119C206.492 19.96 205.279 20.28 204.479 20.92C203.705 21.56 203.319 22.3733 203.319 23.36C203.319 24.32 203.559 25.0667 204.039 25.6C204.519 26.1333 205.225 26.4 206.159 26.4Z" fill="white"/>
<path d="M21.3828 12.08L22.1782 12.686L21.3828 12.08ZM13.5428 12L12.7107 12.5547L12.7166 12.5633L13.5428 12ZM12.3428 7.6V6.6H11.3428V7.6H12.3428ZM15.5428 7.6H16.5428V6.6H15.5428V7.6ZM18.9428 10L19.7681 10.5647L19.7748 10.5549L19.7813 10.545L18.9428 10ZM17.7028 4.96L17.1525 5.79496L17.1592 5.79936L17.1659 5.80366L17.7028 4.96ZM6.90281 7L7.68466 7.6235L7.68845 7.61869L6.90281 7ZM6.90281 23.04L6.11716 23.6587L6.12098 23.6635L6.90281 23.04ZM20.9828 22.76L21.6167 21.9866L20.8993 21.3985L20.2591 22.0699L20.9828 22.76ZM23.4228 24.76L24.2162 25.3687L24.8056 24.6005L24.0567 23.9866L23.4228 24.76ZM4.18281 25.44L3.42083 26.0877L3.42788 26.0958L4.18281 25.44ZM4.22281 4.68L4.9842 5.32831L4.98734 5.3246L4.22281 4.68ZM19.9428 2.68L19.3353 3.47439L19.3428 3.48L19.9428 2.68ZM21.6628 8C21.6628 9.41231 21.2902 10.5515 20.5874 11.474L22.1782 12.686C23.1821 11.3685 23.6628 9.78769 23.6628 8H21.6628ZM20.5874 11.474C19.9729 12.2805 18.9897 12.76 17.4228 12.76V14.76C19.4292 14.76 21.0861 14.1195 22.1782 12.686L20.5874 11.474ZM17.4228 12.76C15.8707 12.76 14.9345 12.2659 14.369 11.4367L12.7166 12.5633C13.7512 14.0807 15.4016 14.76 17.4228 14.76V12.76ZM14.3749 11.4453C13.7048 10.4403 13.3428 9.17633 13.3428 7.6H11.3428C11.3428 9.49033 11.7808 11.1597 12.7108 12.5547L14.3749 11.4453ZM12.3428 8.6H15.5428V6.6H12.3428V8.6ZM14.5428 7.6C14.5428 8.71981 14.7036 9.72516 15.1534 10.4813C15.652 11.3193 16.4533 11.76 17.4228 11.76V9.76C17.1389 9.76 17.0003 9.67403 16.8722 9.45871C16.6954 9.16151 16.5428 8.58686 16.5428 7.6H14.5428ZM17.4228 11.76C18.3861 11.76 19.2169 11.3702 19.7681 10.5647L18.1175 9.43531C17.9753 9.64309 17.7928 9.76 17.4228 9.76V11.76ZM19.7813 10.545C20.2575 9.81227 20.4628 8.94376 20.4628 8H18.4628C18.4628 8.65624 18.3214 9.12107 18.1044 9.45501L19.7813 10.545ZM20.4628 8C20.4628 6.3442 19.6717 5.02759 18.2397 4.11634L17.1659 5.80366C18.0806 6.38574 18.4628 7.0958 18.4628 8H20.4628ZM18.2531 4.12504C16.8973 3.23145 15.3276 2.8 13.5828 2.8V4.8C14.9847 4.8 16.1616 5.14188 17.1525 5.79496L18.2531 4.12504ZM13.5828 2.8C10.5106 2.8 7.99146 4.00127 6.11718 6.38131L7.68845 7.61869C9.17417 5.73206 11.1083 4.8 13.5828 4.8V2.8ZM6.12098 6.37651C4.27329 8.69345 3.38281 11.5932 3.38281 15H5.38281C5.38281 11.9535 6.17233 9.51988 7.68465 7.62349L6.12098 6.37651ZM3.38281 15C3.38281 18.4073 4.27342 21.3174 6.11718 23.6587L7.68845 22.4213C6.1722 20.4959 5.38281 18.0461 5.38281 15H3.38281ZM6.12098 23.6635C7.99496 26.0134 10.4987 27.2 13.5428 27.2V25.2C11.0936 25.2 9.17067 24.2799 7.68465 22.4165L6.12098 23.6635ZM13.5428 27.2C16.6296 27.2 19.3606 25.9104 21.7066 23.4501L20.2591 22.0699C18.2317 24.1962 16.0027 25.2 13.5428 25.2V27.2ZM20.3489 23.5334L22.7889 25.5334L24.0567 23.9866L21.6167 21.9866L20.3489 23.5334ZM22.6294 24.1513C20.4554 26.9849 17.5287 28.4 13.7428 28.4V30.4C18.1169 30.4 21.6436 28.7218 24.2162 25.3687L22.6294 24.1513ZM13.7428 28.4C9.89908 28.4 7.00875 27.1683 4.93775 24.7842L3.42788 26.0958C5.94354 28.9917 9.42655 30.4 13.7428 30.4V28.4ZM4.94475 24.7924C2.86254 22.3427 1.78281 19.135 1.78281 15.08H-0.217188C-0.217188 19.505 0.969751 23.204 3.42087 26.0876L4.94475 24.7924ZM1.78281 15.08C1.78281 11.0282 2.87412 7.80642 4.98419 5.3283L3.46143 4.03169C0.984843 6.94024 -0.217188 10.6518 -0.217188 15.08H1.78281ZM4.98734 5.3246C7.06843 2.85632 9.89458 1.6 13.5828 1.6V-0.400002C9.37771 -0.400002 5.96386 1.06367 3.45829 4.0354L4.98734 5.3246ZM13.5828 1.6C15.8047 1.6 17.7078 2.22978 19.3354 3.47436L20.5503 1.88564C18.5511 0.356887 16.2143 -0.400002 13.5828 -0.400002V1.6ZM19.3428 3.48C20.9151 4.65925 21.6628 6.14136 21.6628 8H23.6628C23.6628 5.48531 22.5971 3.42075 20.5428 1.88L19.3428 3.48ZM45.7922 11.4H46.7922V10.4H45.7922V11.4ZM44.5922 15.8L45.4185 16.3634L45.4242 16.3547L44.5922 15.8ZM37.7122 6.48L38.3855 7.21938L38.3926 7.21279L37.7122 6.48ZM48.2322 6.56L48.9025 5.81789L48.9012 5.8167L48.2322 6.56ZM47.5522 25.36L48.3136 26.0083L48.3167 26.0046L47.5522 25.36ZM28.8322 25.36L28.0677 26.0046L28.0708 26.0083L28.8322 25.36ZM28.8322 4.68L29.5936 5.32831L29.5967 5.3246L28.8322 4.68ZM38.1922 0.599998H39.1922V-0.400002H38.1922V0.599998ZM38.1922 3.6V4.6H39.1922V3.6H38.1922ZM31.5122 6.84L32.2978 7.4587L32.3015 7.45394L31.5122 6.84ZM31.5122 23.2L30.7228 23.8139L30.7266 23.8187L31.5122 23.2ZM44.8722 23.2L45.6578 23.8187L45.6615 23.8139L44.8722 23.2ZM46.0722 9.12L45.2788 9.72886L45.2859 9.73782L46.0722 9.12ZM39.9522 8.64L40.648 9.35824L39.9522 8.64ZM39.1922 13.8L38.3537 14.345L38.3602 14.3549L38.3669 14.3647L39.1922 13.8ZM42.5922 11.4V10.4H41.5922V11.4H42.5922ZM44.7922 11.4C44.7922 12.9763 44.4302 14.2403 43.7601 15.2453L45.4242 16.3547C46.3542 14.9597 46.7922 13.2903 46.7922 11.4H44.7922ZM43.766 15.2367C43.2005 16.0659 42.2643 16.56 40.7122 16.56V18.56C42.7334 18.56 44.3838 17.8807 45.4184 16.3633L43.766 15.2367ZM40.7122 16.56C39.1453 16.56 38.1621 16.0805 37.5476 15.274L35.9568 16.486C37.0489 17.9195 38.7058 18.56 40.7122 18.56V16.56ZM37.5476 15.274C36.8448 14.3515 36.4722 13.2123 36.4722 11.8H34.4722C34.4722 13.5877 34.9529 15.1685 35.9568 16.486L37.5476 15.274ZM36.4722 11.8C36.4722 9.86872 37.1188 8.37298 38.3855 7.21934L37.0389 5.74066C35.3189 7.30701 34.4722 9.35795 34.4722 11.8H36.4722ZM38.3926 7.21279C39.7049 5.99427 41.2099 5.4 42.9522 5.4V3.4C40.6945 3.4 38.7062 4.19239 37.0317 5.74721L38.3926 7.21279ZM42.9522 5.4C44.5947 5.4 46.1229 6.00703 47.5632 7.30329L48.9012 5.8167C47.1414 4.23297 45.1496 3.4 42.9522 3.4V5.4ZM47.5619 7.3021C48.2274 7.90321 48.818 8.83374 49.2889 10.1719L51.1755 9.50809C50.633 7.96626 49.8903 6.71012 48.9025 5.8179L47.5619 7.3021ZM49.2889 10.1719C49.7493 11.4805 49.9922 13.0567 49.9922 14.92H51.9922C51.9922 12.8899 51.7284 11.0795 51.1755 9.50809L49.2889 10.1719ZM49.9922 14.92C49.9922 18.9714 48.901 22.2089 46.7877 24.7154L48.3167 26.0046C50.7901 23.0711 51.9922 19.3486 51.9922 14.92H49.9922ZM46.7908 24.7117C44.7109 27.1544 41.8839 28.4 38.1922 28.4V30.4C42.3938 30.4 45.8069 28.9522 48.3136 26.0083L46.7908 24.7117ZM38.1922 28.4C34.5005 28.4 31.6735 27.1544 29.5936 24.7117L28.0708 26.0083C30.5775 28.9522 33.9906 30.4 38.1922 30.4V28.4ZM29.5967 24.7154C27.4815 22.2066 26.3922 18.9946 26.3922 15H24.3922C24.3922 19.3788 25.5962 23.0734 28.0677 26.0046L29.5967 24.7154ZM26.3922 15C26.3922 11.0051 27.4816 7.8087 29.5936 5.3283L28.0708 4.03169C25.5962 6.93797 24.3922 10.6215 24.3922 15H26.3922ZM29.5967 5.3246C31.6778 2.85632 34.504 1.6 38.1922 1.6V-0.400002C33.9871 -0.400002 30.5732 1.06367 28.0677 4.0354L29.5967 5.3246ZM37.1922 0.599998V3.6H39.1922V0.599998H37.1922ZM38.1922 2.6C35.1151 2.6 32.5953 3.81865 30.7228 6.22606L32.3015 7.45394C33.7891 5.54135 35.7226 4.6 38.1922 4.6V2.6ZM30.7266 6.22131C28.8795 8.56681 27.9922 11.5192 27.9922 15H29.9922C29.9922 11.8674 30.7849 9.37985 32.2978 7.45869L30.7266 6.22131ZM27.9922 15C27.9922 18.4813 28.8796 21.4441 30.7228 23.8139L32.3015 22.5861C30.7847 20.6359 29.9922 18.1321 29.9922 15H27.9922ZM30.7266 23.8187C32.6008 26.1987 35.12 27.4 38.1922 27.4V25.4C35.7177 25.4 33.7835 24.4679 32.2978 22.5813L30.7266 23.8187ZM38.1922 27.4C41.2644 27.4 43.7835 26.1987 45.6578 23.8187L44.0866 22.5813C42.6008 24.4679 40.6667 25.4 38.1922 25.4V27.4ZM45.6615 23.8139C47.4933 21.4589 48.3922 18.6363 48.3922 15.4H46.3922C46.3922 18.2437 45.6111 20.6211 44.0828 22.5861L45.6615 23.8139ZM48.3922 15.4C48.3922 13.8246 48.2797 12.4607 48.0408 11.3243C47.8037 10.1963 47.429 9.22828 46.8585 8.50218L45.2859 9.73782C45.5954 10.1317 45.8807 10.7704 46.0836 11.7357C46.2847 12.6926 46.3922 13.9087 46.3922 15.4H48.3922ZM46.8655 8.51118C45.845 7.18138 44.5485 6.4 42.9922 6.4V8.4C43.7825 8.4 44.5394 8.76529 45.2789 9.72882L46.8655 8.51118ZM42.9922 6.4C41.5555 6.4 40.2936 6.91692 39.2564 7.92176L40.648 9.35824C41.3174 8.70975 42.0822 8.4 42.9922 8.4V6.4ZM39.2564 7.92176C38.1925 8.95238 37.6722 10.2725 37.6722 11.8H39.6722C39.6722 10.7675 40.0052 9.98095 40.648 9.35824L39.2564 7.92176ZM37.6722 11.8C37.6722 12.7438 37.8775 13.6123 38.3537 14.345L40.0306 13.255C39.8136 12.9211 39.6722 12.4562 39.6722 11.8H37.6722ZM38.3669 14.3647C38.9181 15.1702 39.7489 15.56 40.7122 15.56V13.56C40.3422 13.56 40.1597 13.4431 40.0175 13.2353L38.3669 14.3647ZM40.7122 15.56C41.6817 15.56 42.483 15.1193 42.9816 14.2813C43.4314 13.5252 43.5922 12.5198 43.5922 11.4H41.5922C41.5922 12.3869 41.4396 12.9615 41.2628 13.2587C41.1347 13.474 40.9961 13.56 40.7122 13.56V15.56ZM42.5922 12.4H45.7922V10.4H42.5922V12.4ZM74.1906 11.4H75.1906V10.4H74.1906V11.4ZM72.9906 15.8L73.8169 16.3634L73.8227 16.3547L72.9906 15.8ZM66.1106 6.48L66.784 7.21938L66.7911 7.21279L66.1106 6.48ZM76.6306 6.56L77.3009 5.81789L77.2996 5.8167L76.6306 6.56ZM75.9506 25.36L76.712 26.0083L76.7151 26.0046L75.9506 25.36ZM57.2306 25.36L56.4661 26.0046L56.4692 26.0083L57.2306 25.36ZM57.2306 4.68L57.992 5.32831L57.9951 5.3246L57.2306 4.68ZM66.5906 0.599998H67.5906V-0.400002H66.5906V0.599998ZM66.5906 3.6V4.6H67.5906V3.6H66.5906ZM59.9106 6.84L60.6963 7.4587L60.7 7.45394L59.9106 6.84ZM59.9106 23.2L59.1213 23.8139L59.125 23.8187L59.9106 23.2ZM73.2706 23.2L74.0563 23.8187L74.06 23.8139L73.2706 23.2ZM74.4706 9.12L73.6773 9.72886L73.6843 9.73782L74.4706 9.12ZM68.3506 8.64L69.0464 9.35824H69.0464L68.3506 8.64ZM67.5906 13.8L66.7522 14.345L66.7586 14.3549L66.7653 14.3647L67.5906 13.8ZM70.9906 11.4V10.4H69.9906V11.4H70.9906ZM73.1906 11.4C73.1906 12.9763 72.8286 14.2403 72.1586 15.2453L73.8227 16.3547C74.7526 14.9597 75.1906 13.2903 75.1906 11.4H73.1906ZM72.1644 15.2367C71.599 16.0659 70.6628 16.56 69.1106 16.56V18.56C71.1318 18.56 72.7823 17.8807 73.8169 16.3633L72.1644 15.2367ZM69.1106 16.56C67.5437 16.56 66.5605 16.0805 65.9461 15.274L64.3552 16.486C65.4474 17.9195 67.1042 18.56 69.1106 18.56V16.56ZM65.9461 15.274C65.2432 14.3515 64.8706 13.2123 64.8706 11.8H62.8706C62.8706 13.5877 63.3514 15.1685 64.3552 16.486L65.9461 15.274ZM64.8706 11.8C64.8706 9.86872 65.5172 8.37298 66.784 7.21934L65.4373 5.74066C63.7174 7.30701 62.8706 9.35795 62.8706 11.8H64.8706ZM66.7911 7.21279C68.1033 5.99427 69.6083 5.4 71.3506 5.4V3.4C69.093 3.4 67.1046 4.19239 65.4302 5.74721L66.7911 7.21279ZM71.3506 5.4C72.9932 5.4 74.5214 6.00703 75.9617 7.30329L77.2996 5.8167C75.5399 4.23297 73.5481 3.4 71.3506 3.4V5.4ZM75.9603 7.3021C76.6258 7.90321 77.2165 8.83374 77.6873 10.1719L79.5739 9.50809C79.0314 7.96626 78.2887 6.71012 77.3009 5.8179L75.9603 7.3021ZM77.6873 10.1719C78.1478 11.4805 78.3906 13.0567 78.3906 14.92H80.3906C80.3906 12.8899 80.1268 11.0795 79.5739 9.50809L77.6873 10.1719ZM78.3906 14.92C78.3906 18.9714 77.2994 22.2089 75.1861 24.7154L76.7151 26.0046C79.1885 23.0711 80.3906 19.3486 80.3906 14.92H78.3906ZM75.1892 24.7117C73.1093 27.1544 70.2823 28.4 66.5906 28.4V30.4C70.7923 30.4 74.2053 28.9522 76.712 26.0083L75.1892 24.7117ZM66.5906 28.4C62.8989 28.4 60.072 27.1544 57.992 24.7117L56.4692 26.0083C58.976 28.9522 62.389 30.4 66.5906 30.4V28.4ZM57.9951 24.7154C55.8799 22.2066 54.7906 18.9946 54.7906 15H52.7906C52.7906 19.3788 53.9947 23.0734 56.4661 26.0046L57.9951 24.7154ZM54.7906 15C54.7906 11.0051 55.88 7.8087 57.992 5.3283L56.4692 4.03169C53.9946 6.93797 52.7906 10.6215 52.7906 15H54.7906ZM57.9951 5.3246C60.0762 2.85632 62.9024 1.6 66.5906 1.6V-0.400002C62.3855 -0.400002 58.9717 1.06367 56.4661 4.0354L57.9951 5.3246ZM65.5906 0.599998V3.6H67.5906V0.599998H65.5906ZM66.5906 2.6C63.5136 2.6 60.9937 3.81865 59.1213 6.22606L60.7 7.45394C62.1875 5.54135 64.121 4.6 66.5906 4.6V2.6ZM59.125 6.22131C57.2779 8.56681 56.3906 11.5192 56.3906 15H58.3906C58.3906 11.8674 59.1833 9.37985 60.6963 7.45869L59.125 6.22131ZM56.3906 15C56.3906 18.4813 57.2781 21.4441 59.1213 23.8139L60.7 22.5861C59.1832 20.6359 58.3906 18.1321 58.3906 15H56.3906ZM59.125 23.8187C60.9993 26.1987 63.5184 27.4 66.5906 27.4V25.4C64.1161 25.4 62.182 24.4679 60.6963 22.5813L59.125 23.8187ZM66.5906 27.4C69.6628 27.4 72.182 26.1987 74.0563 23.8187L72.485 22.5813C70.9993 24.4679 69.0651 25.4 66.5906 25.4V27.4ZM74.06 23.8139C75.8917 21.4589 76.7906 18.6363 76.7906 15.4H74.7906C74.7906 18.2437 74.0096 20.6211 72.4813 22.5861L74.06 23.8139ZM76.7906 15.4C76.7906 13.8246 76.6781 12.4607 76.4392 11.3243C76.2021 10.1963 75.8275 9.22828 75.2569 8.50218L73.6843 9.73782C73.9938 10.1317 74.2791 10.7704 74.482 11.7357C74.6831 12.6926 74.7906 13.9087 74.7906 15.4H76.7906ZM75.2639 8.51118C74.2434 7.18138 72.9469 6.4 71.3906 6.4V8.4C72.181 8.4 72.9379 8.76529 73.6773 9.72882L75.2639 8.51118ZM71.3906 6.4C69.9539 6.4 68.6921 6.91692 67.6548 7.92176L69.0464 9.35824C69.7158 8.70975 70.4806 8.4 71.3906 8.4V6.4ZM67.6548 7.92176C66.591 8.95238 66.0706 10.2725 66.0706 11.8H68.0706C68.0706 10.7675 68.4036 9.98095 69.0464 9.35824L67.6548 7.92176ZM66.0706 11.8C66.0706 12.7438 66.2759 13.6123 66.7522 14.345L68.4291 13.255C68.212 12.9211 68.0706 12.4562 68.0706 11.8H66.0706ZM66.7653 14.3647C67.3165 15.1702 68.1473 15.56 69.1106 15.56V13.56C68.7406 13.56 68.5581 13.4431 68.4159 13.2353L66.7653 14.3647ZM69.1106 15.56C70.0801 15.56 70.8815 15.1193 71.38 14.2813C71.8299 13.5252 71.9906 12.5198 71.9906 11.4H69.9906C69.9906 12.3869 69.838 12.9615 69.6612 13.2587C69.5331 13.474 69.3945 13.56 69.1106 13.56V15.56ZM70.9906 12.4H74.1906V10.4H70.9906V12.4ZM96.3491 4V3H95.3491V4H96.3491ZM96.3491 26H95.3491V27H96.3491V26ZM107.509 26V27H108.509V26H107.509ZM107.509 21.4V20.4H106.509V21.4H107.509ZM110.309 21.4H111.309V20.4H110.309V21.4ZM110.309 29V30H111.309V29H110.309ZM89.0691 29H88.0691V30H89.0691V29ZM89.0691 26V25H88.0691V26H89.0691ZM92.9491 26V27H93.9491V26H92.9491ZM92.9491 4.08H93.9491V3.01285L92.8842 3.08211L92.9491 4.08ZM85.9891 5.72L85.4458 4.88039L85.4382 4.88539L85.9891 5.72ZM84.5091 11.56L83.6706 12.105L83.6771 12.1149L83.6838 12.1247L84.5091 11.56ZM87.9091 9.16V8.16H86.9091V9.16H87.9091ZM91.1091 9.16H92.1091V8.16H91.1091V9.16ZM89.9091 13.56L90.7353 14.1234L90.7411 14.1147L89.9091 13.56ZM82.0691 13.64L81.2736 14.246L82.0691 13.64ZM99.8291 0.999998H100.829V-1.90735e-06H99.8291V0.999998ZM99.8291 4V5H100.829V4H99.8291ZM95.3491 4V26H97.3491V4H95.3491ZM96.3491 27H107.509V25H96.3491V27ZM108.509 26V21.4H106.509V26H108.509ZM107.509 22.4H110.309V20.4H107.509V22.4ZM109.309 21.4V29H111.309V21.4H109.309ZM110.309 28H89.0691V30H110.309V28ZM90.0691 29V26H88.0691V29H90.0691ZM89.0691 27H92.9491V25H89.0691V27ZM93.9491 26V4.08H91.9491V26H93.9491ZM92.8842 3.08211C89.5755 3.29731 87.0338 3.85293 85.4458 4.88043L86.5323 6.55957C87.6644 5.82707 89.7626 5.28936 93.014 5.07789L92.8842 3.08211ZM85.4382 4.88539C83.8076 5.96162 82.9891 7.56476 82.9891 9.56H84.9891C84.9891 8.19524 85.5039 7.23838 86.5399 6.55461L85.4382 4.88539ZM82.9891 9.56C82.9891 10.5038 83.1944 11.3723 83.6706 12.105L85.3475 11.015C85.1304 10.6811 84.9891 10.2162 84.9891 9.56H82.9891ZM83.6838 12.1247C84.2349 12.9302 85.0657 13.32 86.0291 13.32V11.32C85.6591 11.32 85.4765 11.2031 85.3344 10.9953L83.6838 12.1247ZM86.0291 13.32C86.9985 13.32 87.7999 12.8793 88.2985 12.0413C88.7483 11.2852 88.9091 10.2798 88.9091 9.16H86.9091C86.9091 10.1469 86.7565 10.7215 86.5797 11.0187C86.4516 11.234 86.3129 11.32 86.0291 11.32V13.32ZM87.9091 10.16H91.1091V8.16H87.9091V10.16ZM90.1091 9.16C90.1091 10.7363 89.747 12.0003 89.077 13.0053L90.7411 14.1147C91.6711 12.7197 92.1091 11.0503 92.1091 9.16H90.1091ZM89.0828 12.9967C88.5174 13.8259 87.5812 14.32 86.0291 14.32V16.32C88.0503 16.32 89.7007 15.6407 90.7353 14.1233L89.0828 12.9967ZM86.0291 14.32C84.4621 14.32 83.479 13.8405 82.8645 13.034L81.2736 14.246C82.3658 15.6795 84.0227 16.32 86.0291 16.32V14.32ZM82.8645 13.034C82.1616 12.1115 81.7891 10.9723 81.7891 9.56H79.7891C79.7891 11.3477 80.2698 12.9285 81.2736 14.246L82.8645 13.034ZM81.7891 9.56C81.7891 7.41153 82.723 5.64749 84.7303 4.21373L83.5678 2.58626C81.0951 4.35251 79.7891 6.69513 79.7891 9.56H81.7891ZM84.7303 4.21373C86.7154 2.79577 89.9799 2 94.7091 2V-1.90735e-06C89.8382 -1.90735e-06 86.0627 0.804222 83.5678 2.58626L84.7303 4.21373ZM94.7091 2H99.8291V-1.90735e-06H94.7091V2ZM98.8291 0.999998V4H100.829V0.999998H98.8291ZM99.8291 3H96.3491V5H99.8291V3ZM112.976 11.6H111.976V12.6H112.976V11.6ZM112.976 9V8H111.976V9H112.976ZM119.456 9H120.456V8H119.456V9ZM119.456 26.4H118.456V27.4H119.456V26.4ZM122.936 26.4H123.936V25.4H122.936V26.4ZM122.936 29V30H123.936V29H122.936ZM112.936 29H111.936V30H112.936V29ZM112.936 26.4V25.4H111.936V26.4H112.936ZM116.056 26.4V27.4H117.056V26.4H116.056ZM116.056 11.6H117.056V10.6H116.056V11.6ZM116.216 4.8L115.463 5.4585L116.216 4.8ZM116.256 1.68L115.528 0.994635L115.517 1.00633L115.506 1.01838L116.256 1.68ZM119.216 1.64L118.463 2.2985V2.2985L119.216 1.64ZM119.136 4.76L118.408 4.07463L118.397 4.08633L118.386 4.09838L119.136 4.76ZM113.976 11.6V9H111.976V11.6H113.976ZM112.976 10H119.456V8H112.976V10ZM118.456 9V26.4H120.456V9H118.456ZM119.456 27.4H122.936V25.4H119.456V27.4ZM121.936 26.4V29H123.936V26.4H121.936ZM122.936 28H112.936V30H122.936V28ZM113.936 29V26.4H111.936V29H113.936ZM112.936 27.4H116.056V25.4H112.936V27.4ZM117.056 26.4V11.6H115.056V26.4H117.056ZM116.056 10.6H112.976V12.6H116.056V10.6ZM117.656 4.44C117.346 4.44 117.145 4.34267 116.969 4.14149L115.463 5.4585C116.034 6.11066 116.792 6.44 117.656 6.44V4.44ZM116.969 4.14149C116.761 3.90395 116.656 3.63367 116.656 3.28H114.656C114.656 4.09966 114.925 4.84272 115.463 5.4585L116.969 4.14149ZM116.656 3.28C116.656 2.90643 116.77 2.60936 117.006 2.34162L115.506 1.01838C114.942 1.65731 114.656 2.4269 114.656 3.28H116.656ZM116.984 2.36536C117.235 2.09906 117.483 2 117.776 2V-1.90735e-06C116.895 -1.90735e-06 116.13 0.354272 115.528 0.994635L116.984 2.36536ZM117.776 2C118.086 2 118.287 2.09733 118.463 2.2985L119.969 0.981496C119.398 0.329336 118.64 -1.90735e-06 117.776 -1.90735e-06V2ZM118.463 2.2985C118.664 2.52736 118.776 2.80744 118.776 3.2H120.776C120.776 2.36589 120.515 1.60597 119.969 0.981494L118.463 2.2985ZM118.776 3.2C118.776 3.51531 118.672 3.79433 118.408 4.07463L119.864 5.44536C120.454 4.819 120.776 4.05802 120.776 3.2H118.776ZM118.386 4.09838C118.169 4.34407 117.946 4.44 117.656 4.44V6.44C118.539 6.44 119.303 6.0826 119.886 5.42162L118.386 4.09838ZM131.233 26.4H130.233V27.4H131.233V26.4ZM134.713 26.4H135.713V25.4H134.713V26.4ZM134.713 29V30H135.713V29H134.713ZM124.753 29H123.753V30H124.753V29ZM124.753 26.4V25.4H123.753V26.4H124.753ZM127.833 26.4V27.4H128.833V26.4H127.833ZM127.833 11.6H128.833V10.6H127.833V11.6ZM124.753 11.6H123.753V12.6H124.753V11.6ZM124.753 9V8H123.753V9H124.753ZM130.473 9L131.448 8.77917L131.272 8H130.473V9ZM130.953 11.12L129.978 11.3408L130.273 12.6455L131.441 11.9929L130.953 11.12ZM133.153 9.96L133.583 10.8629L133.6 10.8547L133.617 10.8458L133.153 9.96ZM135.553 9.08L135.825 10.0424L135.833 10.0402L135.84 10.0378L135.553 9.08ZM143.353 10.64L142.506 11.1715L142.514 11.1833L143.353 10.64ZM144.673 26.6H143.673V27.6H144.673V26.6ZM147.953 26.6H148.953V25.6H147.953V26.6ZM147.953 28.28L148.481 29.1293L148.953 28.8358V28.28H147.953ZM141.913 28.56L141.185 29.2454L141.206 29.2674L141.228 29.2882L141.913 28.56ZM140.673 12.8L139.779 13.2473L139.785 13.2594L140.673 12.8ZM131.233 14L130.764 13.1168L130.233 13.3987V14H131.233ZM131.233 27.4H134.713V25.4H131.233V27.4ZM133.713 26.4V29H135.713V26.4H133.713ZM134.713 28H124.753V30H134.713V28ZM125.753 29V26.4H123.753V29H125.753ZM124.753 27.4H127.833V25.4H124.753V27.4ZM128.833 26.4V11.6H126.833V26.4H128.833ZM127.833 10.6H124.753V12.6H127.833V10.6ZM125.753 11.6V9H123.753V11.6H125.753ZM124.753 10H130.473V8H124.753V10ZM129.498 9.22083L129.978 11.3408L131.928 10.8992L131.448 8.77917L129.498 9.22083ZM131.441 11.9929C132.339 11.4909 133.051 11.1161 133.583 10.8629L132.723 9.05714C132.135 9.33727 131.38 9.73582 130.465 10.2471L131.441 11.9929ZM133.617 10.8458C134.088 10.5994 134.811 10.3282 135.825 10.0424L135.282 8.11755C134.215 8.41846 133.339 8.73396 132.689 9.07417L133.617 10.8458ZM135.84 10.0378C136.826 9.74225 137.755 9.6 138.633 9.6V7.6C137.538 7.6 136.414 7.77775 135.266 8.12217L135.84 10.0378ZM138.633 9.6C140.743 9.6 141.907 10.2173 142.506 11.1715L144.2 10.1085C143.092 8.34267 141.11 7.6 138.633 7.6V9.6ZM142.514 11.1833C143.25 12.3211 143.673 13.9855 143.673 16.28H145.673C145.673 13.7745 145.216 11.6789 144.193 10.0967L142.514 11.1833ZM143.673 16.28V26.6H145.673V16.28H143.673ZM144.673 27.6H147.953V25.6H144.673V27.6ZM146.953 26.6V28.28H148.953V26.6H146.953ZM147.425 27.4307C146.616 27.9336 145.657 28.2 144.513 28.2V30.2C145.982 30.2 147.317 29.853 148.481 29.1293L147.425 27.4307ZM144.513 28.2C143.26 28.2 142.749 27.9734 142.598 27.8318L141.228 29.2882C141.984 30 143.207 30.2 144.513 30.2V28.2ZM142.641 27.8746C142.467 27.6896 142.273 27.2746 142.273 26.4H140.273C140.273 27.4987 140.506 28.5237 141.185 29.2454L142.641 27.8746ZM142.273 26.4V16.28H140.273V26.4H142.273ZM142.273 16.28C142.273 14.6796 142.072 13.3271 141.561 12.3406L139.785 13.2594C140.075 13.8196 140.273 14.787 140.273 16.28H142.273ZM141.568 12.3528C140.91 11.0369 139.482 10.6 137.913 10.6V12.6C139.224 12.6 139.637 12.9631 139.779 13.2472L141.568 12.3528ZM137.913 10.6C137.028 10.6 135.986 10.8417 134.825 11.2589C133.652 11.6804 132.296 12.3033 130.764 13.1168L131.702 14.8832C133.183 14.0967 134.448 13.5196 135.501 13.1411C136.567 12.7583 137.359 12.6 137.913 12.6V10.6ZM130.233 14V26.4H132.233V14H130.233ZM151.127 27.84L150.411 28.5382L150.42 28.5471L151.127 27.84ZM151.647 19.12L152.302 19.8762V19.8762L151.647 19.12ZM162.167 17.32V18.32H163.167V17.32H162.167ZM153.207 12.32L152.928 11.3597L152.207 11.569V12.32H153.207ZM153.207 15V16H154.207V15H153.207ZM150.407 15H149.407V16H150.407V15ZM150.407 10.24L150.018 9.31875L149.407 9.57674V10.24H150.407ZM154.647 9.04L154.472 8.05537L154.47 8.05587L154.647 9.04ZM163.767 10.44L163.052 11.1393L163.06 11.1471L163.767 10.44ZM165.567 26.6H164.567V27.6H165.567V26.6ZM168.847 26.6H169.847V25.6H168.847V26.6ZM168.847 28.28L169.375 29.1293L169.847 28.8358V28.28H168.847ZM162.847 28.56L163.533 27.8318L162.847 28.56ZM162.167 26.4H163.167V23.9858L161.46 25.6929L162.167 26.4ZM162.167 22.52L162.966 23.1213L163.167 22.8542V22.52H162.167ZM162.167 19.96H163.167V18.96H162.167V19.96ZM154.127 20.92L153.502 20.1391L153.496 20.1443L153.49 20.1496L154.127 20.92ZM153.687 25.6L152.944 26.269V26.269L153.687 25.6ZM155.447 28.4C153.802 28.4 152.642 27.9409 151.834 27.1329L150.42 28.5471C151.692 29.8191 153.412 30.4 155.447 30.4V28.4ZM151.843 27.1419C151.018 26.2954 150.567 25.1499 150.567 23.6H148.567C148.567 25.5701 149.157 27.2513 150.411 28.5381L151.843 27.1419ZM150.567 23.6C150.567 22.1123 151.128 20.892 152.302 19.8762L150.993 18.3638C149.393 19.748 148.567 21.5144 148.567 23.6H150.567ZM152.302 19.8762C153.436 18.8942 155.215 18.32 157.807 18.32V16.32C154.96 16.32 152.631 16.9458 150.993 18.3638L152.302 19.8762ZM157.807 18.32H162.167V16.32H157.807V18.32ZM163.167 17.32V15.28H161.167V17.32H163.167ZM163.167 15.28C163.167 13.91 162.84 12.697 162.01 11.8288C161.171 10.9523 159.986 10.6 158.647 10.6V12.6C159.655 12.6 160.23 12.8611 160.565 13.2112C160.907 13.5697 161.167 14.1966 161.167 15.28H163.167ZM158.647 10.6C156.593 10.6 154.684 10.8498 152.928 11.3597L153.486 13.2803C155.037 12.8302 156.755 12.6 158.647 12.6V10.6ZM152.207 12.32V15H154.207V12.32H152.207ZM153.207 14H150.407V16H153.207V14ZM151.407 15V10.24H149.407V15H151.407ZM150.796 11.1612C151.913 10.6897 153.252 10.3077 154.825 10.0241L154.47 8.05587C152.789 8.35898 151.301 8.77693 150.018 9.31875L150.796 11.1612ZM154.822 10.0246C156.445 9.73671 157.755 9.6 158.767 9.6V7.6C157.593 7.6 156.156 7.75662 154.472 8.05538L154.822 10.0246ZM158.767 9.6C160.701 9.6 162.084 10.1495 163.052 11.1393L164.482 9.74071C163.05 8.27717 161.1 7.6 158.767 7.6V9.6ZM163.06 11.1471C164.037 12.1238 164.567 13.4633 164.567 15.28H166.567C166.567 13.0433 165.898 11.1562 164.474 9.73289L163.06 11.1471ZM164.567 15.28V26.6H166.567V15.28H164.567ZM165.567 27.6H168.847V25.6H165.567V27.6ZM167.847 26.6V28.28H169.847V26.6H167.847ZM168.319 27.4307C167.507 27.9357 166.56 28.2 165.447 28.2V30.2C166.894 30.2 168.214 29.851 169.375 29.1293L168.319 27.4307ZM165.447 28.2C164.194 28.2 163.683 27.9734 163.533 27.8318L162.162 29.2882C162.918 30 164.141 30.2 165.447 30.2V28.2ZM163.533 27.8318C163.376 27.6841 163.167 27.3045 163.167 26.4H161.167C161.167 27.5222 161.412 28.5825 162.162 29.2882L163.533 27.8318ZM161.46 25.6929C159.619 27.534 157.624 28.4 155.447 28.4V30.4C158.23 30.4 160.715 29.266 162.874 27.1071L161.46 25.6929ZM155.807 27.4C158.53 27.4 160.913 25.8494 162.966 23.1213L161.368 21.9187C159.528 24.364 157.671 25.4 155.807 25.4V27.4ZM163.167 22.52V19.96H161.167V22.52H163.167ZM162.167 18.96H157.767V20.96H162.167V18.96ZM157.767 18.96C156.038 18.96 154.557 19.2951 153.502 20.1391L154.752 21.7009C155.297 21.2649 156.243 20.96 157.767 20.96V18.96ZM153.49 20.1496C152.491 20.9758 151.967 22.0694 151.967 23.36H153.967C153.967 22.6772 154.216 22.1442 154.765 21.6904L153.49 20.1496ZM151.967 23.36C151.967 24.4822 152.25 25.4975 152.944 26.269L154.43 24.931C154.165 24.6359 153.967 24.1578 153.967 23.36H151.967ZM152.944 26.269C153.667 27.0719 154.681 27.4 155.807 27.4V25.4C155.067 25.4 154.668 25.1947 154.43 24.931L152.944 26.269ZM176.546 26.4H175.546V27.4H176.546V26.4ZM180.026 26.4H181.026V25.4H180.026V26.4ZM180.026 29V30H181.026V29H180.026ZM170.066 29H169.066V30H170.066V29ZM170.066 26.4V25.4H169.066V26.4H170.066ZM173.146 26.4V27.4H174.146V26.4H173.146ZM173.146 11.6H174.146V10.6H173.146V11.6ZM170.066 11.6H169.066V12.6H170.066V11.6ZM170.066 9V8H169.066V9H170.066ZM175.786 9L176.761 8.77917L176.585 8H175.786V9ZM176.266 11.12L175.29 11.3408L175.586 12.6455L176.753 11.9929L176.266 11.12ZM178.466 9.96L178.896 10.8629L178.913 10.8547L178.93 10.8458L178.466 9.96ZM180.866 9.08L181.137 10.0424L181.145 10.0402L181.153 10.0378L180.866 9.08ZM183.946 8.6L184.204 7.63405L184.077 7.6H183.946V8.6ZM186.186 9.2L187.148 9.47006L187.422 8.49584L186.444 8.23405L186.186 9.2ZM185.266 12.48L185.008 13.4462L185.962 13.7006L186.228 12.7501L185.266 12.48ZM183.466 12L183.723 11.0338L183.597 11H183.466V12ZM176.546 13.68L176.119 12.7756L175.546 13.0462V13.68H176.546ZM176.546 27.4H180.026V25.4H176.546V27.4ZM179.026 26.4V29H181.026V26.4H179.026ZM180.026 28H170.066V30H180.026V28ZM171.066 29V26.4H169.066V29H171.066ZM170.066 27.4H173.146V25.4H170.066V27.4ZM174.146 26.4V11.6H172.146V26.4H174.146ZM173.146 10.6H170.066V12.6H173.146V10.6ZM171.066 11.6V9H169.066V11.6H171.066ZM170.066 10H175.786V8H170.066V10ZM174.81 9.22083L175.29 11.3408L177.241 10.8992L176.761 8.77917L174.81 9.22083ZM176.753 11.9929C177.652 11.4909 178.364 11.1161 178.896 10.8629L178.036 9.05714C177.447 9.33727 176.693 9.73582 175.778 10.2471L176.753 11.9929ZM178.93 10.8458C179.4 10.5994 180.124 10.3282 181.137 10.0424L180.594 8.11755C179.527 8.41846 178.651 8.73396 178.002 9.07417L178.93 10.8458ZM181.153 10.0378C182.138 9.74225 183.068 9.6 183.946 9.6V7.6C182.85 7.6 181.726 7.77775 180.578 8.12217L181.153 10.0378ZM183.687 9.56595L185.927 10.1659L186.444 8.23405L184.204 7.63405L183.687 9.56595ZM185.223 8.92993L184.303 12.2099L186.228 12.7501L187.148 9.47006L185.223 8.92993ZM185.523 11.5138L183.723 11.0338L183.208 12.9662L185.008 13.4462L185.523 11.5138ZM183.466 11C181.055 11 178.603 11.6034 176.119 12.7756L176.972 14.5844C179.235 13.5166 181.396 13 183.466 13V11ZM175.546 13.68V26.4H177.546V13.68H175.546ZM187.742 11.6H186.742V12.6H187.742V11.6ZM187.742 9V8H186.742V9H187.742ZM194.222 9H195.222V8H194.222V9ZM194.222 26.4H193.222V27.4H194.222V26.4ZM197.702 26.4H198.702V25.4H197.702V26.4ZM197.702 29V30H198.702V29H197.702ZM187.702 29H186.702V30H187.702V29ZM187.702 26.4V25.4H186.702V26.4H187.702ZM190.822 26.4V27.4H191.822V26.4H190.822ZM190.822 11.6H191.822V10.6H190.822V11.6ZM190.982 4.8L190.229 5.4585L190.982 4.8ZM191.022 1.68L190.293 0.994635L190.282 1.00633L190.272 1.01838L191.022 1.68ZM193.982 1.64L193.229 2.2985V2.2985L193.982 1.64ZM193.902 4.76L193.173 4.07463L193.162 4.08633L193.152 4.09838L193.902 4.76ZM188.742 11.6V9H186.742V11.6H188.742ZM187.742 10H194.222V8H187.742V10ZM193.222 9V26.4H195.222V9H193.222ZM194.222 27.4H197.702V25.4H194.222V27.4ZM196.702 26.4V29H198.702V26.4H196.702ZM197.702 28H187.702V30H197.702V28ZM188.702 29V26.4H186.702V29H188.702ZM187.702 27.4H190.822V25.4H187.702V27.4ZM191.822 26.4V11.6H189.822V26.4H191.822ZM190.822 10.6H187.742V12.6H190.822V10.6ZM192.422 4.44C192.112 4.44 191.91 4.34267 191.734 4.14149L190.229 5.4585C190.8 6.11066 191.558 6.44 192.422 6.44V4.44ZM191.734 4.14149C191.526 3.90395 191.422 3.63367 191.422 3.28H189.422C189.422 4.09966 189.69 4.84272 190.229 5.4585L191.734 4.14149ZM191.422 3.28C191.422 2.90643 191.535 2.60936 191.771 2.34162L190.272 1.01838C189.708 1.65731 189.422 2.4269 189.422 3.28H191.422ZM191.75 2.36536C192 2.09906 192.249 2 192.542 2V-1.90735e-06C191.661 -1.90735e-06 190.896 0.354272 190.293 0.994635L191.75 2.36536ZM192.542 2C192.851 2 193.053 2.09733 193.229 2.2985L194.734 0.981496C194.163 0.329336 193.405 -1.90735e-06 192.542 -1.90735e-06V2ZM193.229 2.2985C193.429 2.52736 193.542 2.80744 193.542 3.2H195.542C195.542 2.36589 195.281 1.60597 194.734 0.981494L193.229 2.2985ZM193.542 3.2C193.542 3.51531 193.437 3.79433 193.173 4.07463L194.63 5.44536C195.219 4.819 195.542 4.05802 195.542 3.2H193.542ZM193.152 4.09838C192.935 4.34407 192.711 4.44 192.422 4.44V6.44C193.305 6.44 194.068 6.0826 194.651 5.42162L193.152 4.09838ZM201.479 27.84L200.763 28.5382L200.772 28.5471L201.479 27.84ZM201.999 19.12L202.653 19.8762V19.8762L201.999 19.12ZM212.519 17.32V18.32H213.519V17.32H212.519ZM203.559 12.32L203.28 11.3597L202.559 11.569V12.32H203.559ZM203.559 15V16H204.559V15H203.559ZM200.759 15H199.759V16H200.759V15ZM200.759 10.24L200.37 9.31875L199.759 9.57674V10.24H200.759ZM204.999 9.04L204.824 8.05537L204.821 8.05587L204.999 9.04ZM214.119 10.44L213.404 11.1393L213.412 11.1471L214.119 10.44ZM215.919 26.6H214.919V27.6H215.919V26.6ZM219.199 26.6H220.199V25.6H219.199V26.6ZM219.199 28.28L219.727 29.1293L220.199 28.8358V28.28H219.199ZM213.199 28.56L213.884 27.8318L213.199 28.56ZM212.519 26.4H213.519V23.9858L211.812 25.6929L212.519 26.4ZM212.519 22.52L213.318 23.1213L213.519 22.8542V22.52H212.519ZM212.519 19.96H213.519V18.96H212.519V19.96ZM204.479 20.92L203.854 20.1391L203.848 20.1443L203.841 20.1496L204.479 20.92ZM204.039 25.6L203.295 26.269V26.269L204.039 25.6ZM205.799 28.4C204.154 28.4 202.994 27.9409 202.186 27.1329L200.772 28.5471C202.044 29.8191 203.764 30.4 205.799 30.4V28.4ZM202.195 27.1419C201.369 26.2954 200.919 25.1499 200.919 23.6H198.919C198.919 25.5701 199.508 27.2513 200.763 28.5381L202.195 27.1419ZM200.919 23.6C200.919 22.1123 201.479 20.892 202.653 19.8762L201.344 18.3638C199.745 19.748 198.919 21.5144 198.919 23.6H200.919ZM202.653 19.8762C203.788 18.8942 205.566 18.32 208.159 18.32V16.32C205.311 16.32 202.983 16.9458 201.344 18.3638L202.653 19.8762ZM208.159 18.32H212.519V16.32H208.159V18.32ZM213.519 17.32V15.28H211.519V17.32H213.519ZM213.519 15.28C213.519 13.91 213.192 12.697 212.361 11.8288C211.523 10.9523 210.338 10.6 208.999 10.6V12.6C210.006 12.6 210.581 12.8611 210.916 13.2112C211.259 13.5697 211.519 14.1966 211.519 15.28H213.519ZM208.999 10.6C206.945 10.6 205.036 10.8498 203.28 11.3597L203.838 13.2803C205.388 12.8302 207.106 12.6 208.999 12.6V10.6ZM202.559 12.32V15H204.559V12.32H202.559ZM203.559 14H200.759V16H203.559V14ZM201.759 15V10.24H199.759V15H201.759ZM201.148 11.1612C202.264 10.6897 203.604 10.3077 205.176 10.0241L204.821 8.05587C203.14 8.35898 201.653 8.77693 200.37 9.31875L201.148 11.1612ZM205.173 10.0246C206.796 9.73671 208.106 9.6 209.119 9.6V7.6C207.945 7.6 206.508 7.75662 204.824 8.05538L205.173 10.0246ZM209.119 9.6C211.053 9.6 212.436 10.1495 213.404 11.1393L214.834 9.74071C213.402 8.27717 211.452 7.6 209.119 7.6V9.6ZM213.412 11.1471C214.388 12.1238 214.919 13.4633 214.919 15.28H216.919C216.919 13.0433 216.249 11.1562 214.826 9.73289L213.412 11.1471ZM214.919 15.28V26.6H216.919V15.28H214.919ZM215.919 27.6H219.199V25.6H215.919V27.6ZM218.199 26.6V28.28H220.199V26.6H218.199ZM218.671 27.4307C217.859 27.9357 216.912 28.2 215.799 28.2V30.2C217.246 30.2 218.566 29.851 219.727 29.1293L218.671 27.4307ZM215.799 28.2C214.545 28.2 214.035 27.9734 213.884 27.8318L212.513 29.2882C213.27 30 214.492 30.2 215.799 30.2V28.2ZM213.884 27.8318C213.727 27.6841 213.519 27.3045 213.519 26.4H211.519C211.519 27.5222 211.764 28.5825 212.513 29.2882L213.884 27.8318ZM211.812 25.6929C209.971 27.534 207.976 28.4 205.799 28.4V30.4C208.582 30.4 211.067 29.266 213.226 27.1071L211.812 25.6929ZM206.159 27.4C208.882 27.4 211.265 25.8494 213.318 23.1213L211.72 21.9187C209.879 24.364 208.022 25.4 206.159 25.4V27.4ZM213.519 22.52V19.96H211.519V22.52H213.519ZM212.519 18.96H208.119V20.96H212.519V18.96ZM208.119 18.96C206.39 18.96 204.909 19.2951 203.854 20.1391L205.103 21.7009C205.648 21.2649 206.594 20.96 208.119 20.96V18.96ZM203.841 20.1496C202.843 20.9758 202.319 22.0694 202.319 23.36H204.319C204.319 22.6772 204.568 22.1442 205.116 21.6904L203.841 20.1496ZM202.319 23.36C202.319 24.4822 202.601 25.4975 203.295 26.269L204.782 24.931C204.516 24.6359 204.319 24.1578 204.319 23.36H202.319ZM203.295 26.269C204.018 27.0719 205.032 27.4 206.159 27.4V25.4C205.419 25.4 205.019 25.1947 204.782 24.931L203.295 26.269Z" fill="black"/>
</svg>
